<svg viewBox="0 0 1080 1080" xmlns="http://www.w3.org/2000/svg" data-name="Layer 1" id="Layer_1">
  <defs>
    <style>
      .cls-1 {
        fill: none;
        stroke: #fff;
        stroke-miterlimit: 10;
        stroke-width: 3px;
      }

      .cls-2 {
        fill: #fff;
      }
    </style>
  </defs>
  <path d="M991.47,531.06c0,249.34-202.13,451.47-451.47,451.47S88.53,780.41,88.53,531.06,290.66,79.59,540,79.59s451.47,202.12,451.47,451.47"></path>
  <path d="M539.86,586.79c-69.41,0-118.24-39.92-136.62-107.78l31.34-7.34c16.42,43.75,52.89,69.48,105.28,69.48s89.17-25.73,105.88-69.48l31.06,7.34c-18.37,67.86-67.21,107.78-136.94,107.78" class="cls-2"></path>
  <path d="M405.37,307.24c0-85.56,25.59-124.88,63.32-124.88s62.97,39.32,62.97,124.88c0,.98,0,30.47-.01,31.44-.58,83.35-26.01,122.68-62.96,122.68s-62.67-39.21-63.32-122.38c0-1.06,0-30.64,0-31.73m84.42,0c0-66.61-8.64-83.76-21.09-83.76s-21.11,17.14-21.11,83.76c0,1.18,0,30.88,0,32.03,.29,63.99,8.52,80.59,21.11,80.59s20.51-15.86,21.06-77.64c.02-2.11,.03-32.78,.03-34.98" class="cls-2"></path>
  <path d="M256.2,671.45c0-84.46,34.95-131.06,84.83-131.06,13.47,0,33.89,7.52,41.89,17.69v48.4c-7.28-10.91-25.13-22.41-36.77-22.41-28.41,0-44.78,30.6-44.78,87.02,0,68.44,19.27,89.19,37.13,89.19,1.83,0,2.17,0,4.37-.37v-78.63h-3.63c-6.2,0-12.77,1.09-18.21,3.62l3.64-42.22h58.25v138.7c-11.64,14.56-28.78,21.1-46.25,21.1-43.69,0-80.46-39.66-80.46-131.05" class="cls-2"></path>
  <path d="M737.51,544.05h-40.39v232.62c.3,7.51,.39,14.94,0,22.19v.02h40.39c54.96,0,86.29-46.23,86.29-128.14s-31.33-126.69-86.29-126.69m4.37,214.05h-1.46v-173.28h1.46c20.39,0,38.23,22.21,38.23,85.91s-17.84,87.36-38.23,87.36" class="cls-2"></path>
  <path d="M737.51,258.96h-40.39v232.62c.3,7.51,.39,14.94,0,22.19v.02h40.39c54.96,0,86.29-46.23,86.29-128.14s-31.33-126.69-86.29-126.69m4.37,214.05h-1.46v-173.28h1.46c20.39,0,38.23,22.21,38.23,85.92s-17.84,87.36-38.23,87.36" class="cls-2"></path>
  <path d="M548.37,307.24c0-85.56,25.59-124.88,63.32-124.88s62.97,39.32,62.97,124.88c0,.98,0,30.47-.01,31.44-.58,83.35-26.01,122.68-62.96,122.68s-62.67-39.21-63.32-122.38c0-1.06,0-30.64,0-31.73m84.42,0c0-66.61-8.64-83.76-21.09-83.76s-21.11,17.14-21.11,83.76c0,1.18,0,30.88,0,32.03,.29,63.99,8.52,80.59,21.11,80.59s20.51-15.86,21.06-77.64c.02-2.11,.03-32.78,.03-34.98" class="cls-2"></path>
  <path d="M405.37,725.19c0-85.57,25.59-124.88,63.32-124.88s62.97,39.31,62.97,124.88c0,.98,0,30.47-.01,31.44-.58,83.34-26.01,122.66-62.96,122.66s-62.67-39.2-63.32-122.37c0-1.07,0-30.66,0-31.73m84.42,0c0-66.62-8.64-83.76-21.09-83.76s-21.11,17.14-21.11,83.76c0,1.18,0,30.87,0,32.03,.29,63.98,8.52,80.59,21.11,80.59s20.51-15.86,21.06-77.65c.02-2.11,.03-32.77,.03-34.97" class="cls-2"></path>
  <path d="M548.37,725.19c0-85.57,25.59-124.88,63.32-124.88s62.97,39.31,62.97,124.88c0,.98,0,30.47-.01,31.44-.58,83.34-26.01,122.66-62.96,122.66s-62.67-39.2-63.32-122.37c0-1.07,0-30.66,0-31.73m84.42,0c0-66.62-8.64-83.76-21.09-83.76s-21.11,17.14-21.11,83.76c0,1.18,0,30.87,0,32.03,.29,63.98,8.52,80.59,21.11,80.59s20.51-15.86,21.06-77.65c.02-2.11,.03-32.77,.03-34.97" class="cls-2"></path>
  <path d="M256.2,386.73c0-84.46,34.95-131.05,84.83-131.05,13.47,0,33.89,7.52,41.89,17.69v48.39c-7.28-10.9-25.13-22.41-36.77-22.41-28.41,0-44.78,30.61-44.78,87.03,0,68.44,19.27,89.2,37.13,89.2,1.83,0,2.17,0,4.37-.38v-78.63h-3.63c-6.2,0-12.77,1.09-18.21,3.63l3.64-42.22h58.25v138.7c-11.64,14.56-28.78,21.11-46.25,21.11-43.69,0-80.46-39.66-80.46-131.06" class="cls-2"></path>
  <path d="M849.18,530.03v-9.81h7.46c3.66,0,5.9,1.66,5.9,4.87v.1c0,2.87-2.1,4.83-5.76,4.83h-7.61Zm-7.5,17.54h7.5v-10.92h5.9l7.31,10.92h8.77l-8.33-12.18c4.34-1.61,7.31-5.07,7.31-10.58v-.1c0-3.22-1.02-5.9-2.92-7.8-2.24-2.24-5.61-3.46-9.94-3.46h-15.59v34.11Z" class="cls-2"></path>
  <circle r="30.26" cy="531.06" cx="853.94" class="cls-1"></circle>
</svg>